<svg width="87" height="87" viewBox="0 0 87 87" fill="none" xmlns="http://www.w3.org/2000/svg">
<path d="M43.08 0C19.3259 0 0 19.3259 0 43.08C0 66.8341 19.3259 86.16 43.08 86.16C66.8341 86.16 86.16 66.8341 86.16 43.08C86.16 19.3259 66.8341 0 43.08 0ZM58.6779 53.9929C58.9985 54.2976 59.255 54.6633 59.4321 55.0687C59.6091 55.474 59.7033 55.9107 59.709 56.353C59.7146 56.7952 59.6317 57.2342 59.465 57.6439C59.2984 58.0536 59.0514 58.4259 58.7386 58.7386C58.4259 59.0514 58.0536 59.2984 57.6439 59.465C57.2342 59.6317 56.7952 59.7146 56.353 59.709C55.9107 59.7033 55.474 59.6091 55.0687 59.4321C54.6633 59.255 54.2976 58.9985 53.9929 58.6779L43.08 47.767L32.1671 58.6779C31.5406 59.2731 30.7063 59.6 29.8422 59.589C28.9781 59.5779 28.1524 59.2297 27.5414 58.6186C26.9303 58.0076 26.5821 57.1819 26.571 56.3178C26.56 55.4537 26.8869 54.6194 27.4821 53.9929L38.393 43.08L27.4821 32.1671C26.8869 31.5406 26.56 30.7063 26.571 29.8422C26.5821 28.9781 26.9303 28.1524 27.5414 27.5414C28.1524 26.9303 28.9781 26.5821 29.8422 26.571C30.7063 26.56 31.5406 26.8869 32.1671 27.4821L43.08 38.393L53.9929 27.4821C54.6194 26.8869 55.4537 26.56 56.3178 26.571C57.1819 26.5821 58.0076 26.9303 58.6186 27.5414C59.2297 28.1524 59.5779 28.9781 59.589 29.8422C59.6 30.7063 59.2731 31.5406 58.6779 32.1671L47.767 43.08L58.6779 53.9929Z" fill="currentColor"/>
</svg>
