<svg width="87" height="71" viewBox="0 0 87 71" fill="none" xmlns="http://www.w3.org/2000/svg">
<path d="M79.7081 27.2969C76.9214 25.227 73.3639 23.8051 69.692 23.2581C68.578 16.6649 65.6179 11.0292 61.0592 6.85914C56.2312 2.43335 49.8466 0 43.08 0C37.1313 0 31.6369 1.86456 27.1993 5.39341C23.8278 8.07785 21.2018 11.5828 19.5728 15.5727C14.5345 16.3468 9.96057 18.3797 6.54951 21.3869C2.26507 25.1648 0 30.1981 0 35.9449C0 41.7539 2.4384 47.0514 6.86419 50.8815C11.0914 54.5315 16.7827 56.5425 22.8863 56.5425H40.3875V30.7332L32.31 38.8107L28.5018 35.0025L43.08 20.426L57.6582 35.0025L53.85 38.8107L45.7725 30.7332V56.5425H66.6394C71.9133 56.5425 76.7211 55.0616 80.1776 52.3742C84.0918 49.3283 86.16 44.9698 86.16 39.7817C86.16 34.7433 83.9286 30.4236 79.7081 27.2969Z" fill="currentColor"/>
<path d="M40.3875 56.5425H45.7725V70.074H40.3875V56.5425Z" fill="currentColor"/>
</svg>
