<svg width="96" height="122" viewBox="0 0 96 122" fill="none" xmlns="http://www.w3.org/2000/svg">
<path d="M91.16 51.6476V104.084C91.16 107.512 89.7984 110.799 87.3747 113.223C84.9509 115.646 81.6637 117.008 78.236 117.008H17.924C14.4963 117.008 11.2091 115.646 8.78535 113.223C6.36163 110.799 5 107.512 5 104.084V17.924C5 14.4963 6.36163 11.2091 8.78535 8.78535C11.2091 6.36163 14.4963 5 17.924 5H44.5124C46.7968 5.00035 48.9874 5.9078 50.6029 7.52287L88.6371 45.5571C90.2522 47.1726 91.1597 49.3632 91.16 51.6476Z" stroke="#028633" stroke-width="8.616" stroke-linejoin="round"/>
<path d="M48.08 7.15399V39.464C48.08 41.7491 48.9878 43.9406 50.6036 45.5564C52.2194 47.1722 54.4109 48.08 56.696 48.08H89.006" stroke="#028633" stroke-width="8.616" stroke-linecap="round" stroke-linejoin="round"/>
</svg>
